<?xml version="1.0" encoding="utf-8"?>
<!-- Generator: Adobe Illustrator 12.0.0, SVG Export Plug-In . SVG Version: 6.00 Build 51448)  -->
<!DOCTYPE svg PUBLIC "-//W3C//DTD SVG 1.1//EN" "http://www.w3.org/Graphics/SVG/1.1/DTD/svg11.dtd" [
	<!ENTITY ns_svg "http://www.w3.org/2000/svg">
	<!ENTITY ns_xlink "http://www.w3.org/1999/xlink">
]>
<svg  version="1.1" id="Ebene_1" xmlns="&ns_svg;" xmlns:xlink="&ns_xlink;" width="156" height="156" viewBox="0 0 156 156"
	 overflow="visible" enable-background="new 0 0 156 156" xml:space="preserve">
<g id="Ebene_5">
	<rect x="-0.6" y="-0.2" fill="#D4372F" width="156" height="156"/>
</g>
<g>
	<g>
		<path fill="#FFFFFF" d="M79.6,86c-32.7,0-50.5-17.3-50.7,4.6c0.9,23.6,16.5,21.6,22.3,20c5.5-1.6,24.1-7.2,24.1-7.2
			c1.9-0.7,4.3-0.9,6.6-0.1c6.4,2.3,15.8,6.2,22.9,7.8c11.6,2.4,22.4-1.8,23.2-20.5C128.9,68.2,112.3,86,79.6,86z"/>
		<path fill="#D4372F" d="M61.6,98.1c-8.1,3.5-16.1,3-16.2,2.9c-5.4-3.9-5.4-10-5.4-10c0.1,0,25.2,3.3,26.9,3.8
			C67.4,94.8,65.1,96.6,61.6,98.1z"/>
		<path fill="#D4372F" d="M111.4,100.8c0,0-7,0.9-16.7-3.3c-1.1-0.5-5.3-3-4.7-3.1c0.1,0,26.6-3.5,26.7-3.7
			C116.7,90.8,117.6,95.5,111.4,100.8z"/>
	</g>
	<path fill="none" stroke="#FFFFFF" stroke-width="10" d="M75.1,58.6H22.2c-3.4,0-6.1,4.2-6.1,9.3v54.3c0,5.1,2.7,9.3,6.1,9.3h110.5
		c3.4,0,6.1-4.2,6.1-9.3V74.7"/>
	<g>
		<path fill="none" stroke="#FFFFFF" stroke-width="9" d="M103.5,63.5c0-17.8,4.6-24.9,32.4-24.9"/>
		<polygon fill="#FFFFFF" points="121.7,51 132.4,38.6 121.7,26.1 133.1,26.1 143.8,38.6 133.1,51 		"/>
	</g>
</g>
</svg>
