<svg xmlns="http://www.w3.org/2000/svg" viewBox="0 0 64 64">
    <path fill="#d4372f" d="M0 0h64v64H0z" />
    <path fill="#fff" d="M16 46h-5V18h5v-1h-5a1 1 0 00-1 1v28a1 1 0 001 1h5zM53 17h-5v1h5v28h-5v1h5a1 1 0 001-1V18a1 1 0 00-1-1z" />
    <rect width="28" height="14" x="18" y="38" fill="#fff" rx="1" ry="1" />
    <path fill="#fff" d="M32 19.12l7.69-2.68a.71.71 0 11.5 1.32l-7.5 2.61v9.34a.71.71 0 11-1.41 0v-9.35l-7.53-2.69a.71.71 0 01.5-1.32L32 19.12zm.32-8.47a1.29 1.29 0 00-.67 0l-11.32 3.61a.51.51 0 00-.33.45v14.57a.51.51 0 00.33.45l11.33 3.62a1.32 1.32 0 00.67 0l11.33-3.62a.5.5 0 00.33-.45V14.72a.51.51 0 00-.33-.45l-11.33-3.62z" />
    <path fill="#d4372f" d="M32.25 42.89C25 42.89 21 39 21 43.91c.2 5.24 3.66 4.8 4.94 4.43s5.35-1.6 5.35-1.6a2.11 2.11 0 011.47 0 50.27 50.27 0 005.09 1.73c2.57.53 5-.39 5.14-4.55.22-4.98-3.48-1.03-10.74-1.03zm-4 2.68a8.27 8.27 0 01-3.6.64A2.93 2.93 0 0123.47 44s5.59.73 6 .84c.06 0-.47.4-1.21.73zm11 .62a7.79 7.79 0 01-3.71-.73c-.25-.11-1.18-.66-1-.69s5.94-.77 5.95-.77.21 1-1.18 2.19z" />
    <path fill="#fff" d="M13.79 15.71l1.8 1.79-1.8 1.79.71.71 2.5-2.5-2.5-2.5-.71.71zM50.21 15.71l-1.8 1.79 1.8 1.79-.71.71-2.5-2.5 2.5-2.5.71.71z" />
</svg>
